<svg width="56" height="63" viewBox="0 0 56 63" fill="none" xmlns="http://www.w3.org/2000/svg">
<path d="M23.1648 30.2089C22.8671 30.2089 22.6258 30.4502 22.6258 30.7478C22.6258 31.0455 22.8671 31.2868 23.1648 31.2868V30.2089ZM23.1648 31.2868H36.4035V30.2089H23.1648V31.2868ZM37.8048 29.8855V17.3737H36.7269V29.8855H37.8048ZM36.4035 31.2868C37.1774 31.2868 37.8048 30.6594 37.8048 29.8855H36.7269C36.7269 30.0641 36.5821 30.2089 36.4035 30.2089V31.2868Z" fill="#0C68F4"/>
<path d="M18.6738 36.0048C18.3762 36.0048 18.1349 36.2461 18.1349 36.5437C18.1349 36.8414 18.3762 37.0827 18.6738 37.0827V36.0048ZM18.6738 37.0827H50.3747V36.0048H18.6738V37.0827ZM51.7759 35.6814V30.7289H50.698V35.6814H51.7759ZM50.3747 37.0827C51.1486 37.0827 51.7759 36.4553 51.7759 35.6814H50.698C50.698 35.86 50.5533 36.0048 50.3747 36.0048V37.0827Z" fill="#0C68F4"/>
<path d="M17.8464 41.6542C17.5488 41.6542 17.3075 41.8955 17.3075 42.1931C17.3075 42.4908 17.5488 42.7321 17.8464 42.7321V41.6542ZM17.8464 42.7321H49.8281V41.6542H17.8464V42.7321Z" fill="#0C68F4"/>
<path d="M22.4558 47.3273C22.1582 47.3273 21.9169 47.5686 21.9169 47.8662C21.9169 48.1639 22.1582 48.4052 22.4558 48.4052V47.3273ZM22.4558 48.4052H38.2693V47.3273H22.4558V48.4052ZM38.5927 48.7285V54.2725H39.6706V48.7285H38.5927ZM39.9939 55.6737H43.3893V54.5958H39.9939V55.6737ZM38.5927 54.2725C38.5927 55.0464 39.22 55.6737 39.9939 55.6737V54.5958C39.8154 54.5958 39.6706 54.451 39.6706 54.2725H38.5927ZM38.2693 48.4052C38.4479 48.4052 38.5927 48.5499 38.5927 48.7285H39.6706C39.6706 47.9546 39.0432 47.3273 38.2693 47.3273V48.4052Z" fill="#0C68F4"/>
<mask id="path-5-inside-1_1640_5308" fill="white">
<path d="M40.3803 14.6352C40.3803 16.3212 39.0135 17.688 37.3275 17.688C35.6414 17.688 34.2747 16.3212 34.2747 14.6352C34.2747 12.9492 35.6414 11.5824 37.3275 11.5824C39.0135 11.5824 40.3803 12.9492 40.3803 14.6352ZM35.4958 14.6352C35.4958 15.6468 36.3158 16.4669 37.3275 16.4669C38.3391 16.4669 39.1591 15.6468 39.1591 14.6352C39.1591 13.6236 38.3391 12.8035 37.3275 12.8035C36.3158 12.8035 35.4958 13.6236 35.4958 14.6352Z"/>
</mask>
<path d="M40.3803 14.6352C40.3803 16.3212 39.0135 17.688 37.3275 17.688C35.6414 17.688 34.2747 16.3212 34.2747 14.6352C34.2747 12.9492 35.6414 11.5824 37.3275 11.5824C39.0135 11.5824 40.3803 12.9492 40.3803 14.6352ZM35.4958 14.6352C35.4958 15.6468 36.3158 16.4669 37.3275 16.4669C38.3391 16.4669 39.1591 15.6468 39.1591 14.6352C39.1591 13.6236 38.3391 12.8035 37.3275 12.8035C36.3158 12.8035 35.4958 13.6236 35.4958 14.6352Z" fill="#F45E0C" stroke="#F45E0C" stroke-width="0.472752" mask="url(#path-5-inside-1_1640_5308)"/>
<mask id="path-6-inside-2_1640_5308" fill="white">
<path d="M54.3263 27.7813C54.3263 29.4673 52.9595 30.8341 51.2735 30.8341C49.5875 30.8341 48.2207 29.4673 48.2207 27.7813C48.2207 26.0953 49.5875 24.7285 51.2735 24.7285C52.9595 24.7285 54.3263 26.0953 54.3263 27.7813ZM49.4418 27.7813C49.4418 28.7929 50.2619 29.613 51.2735 29.613C52.2851 29.613 53.1052 28.7929 53.1052 27.7813C53.1052 26.7697 52.2851 25.9496 51.2735 25.9496C50.2619 25.9496 49.4418 26.7697 49.4418 27.7813Z"/>
</mask>
<path d="M54.3263 27.7813C54.3263 29.4673 52.9595 30.8341 51.2735 30.8341C49.5875 30.8341 48.2207 29.4673 48.2207 27.7813C48.2207 26.0953 49.5875 24.7285 51.2735 24.7285C52.9595 24.7285 54.3263 26.0953 54.3263 27.7813ZM49.4418 27.7813C49.4418 28.7929 50.2619 29.613 51.2735 29.613C52.2851 29.613 53.1052 28.7929 53.1052 27.7813C53.1052 26.7697 52.2851 25.9496 51.2735 25.9496C50.2619 25.9496 49.4418 26.7697 49.4418 27.7813Z" fill="#F45E0C" stroke="#F45E0C" stroke-width="0.472752" mask="url(#path-6-inside-2_1640_5308)"/>
<mask id="path-7-inside-3_1640_5308" fill="white">
<path d="M55.7445 42.0549C55.7445 43.7409 54.3777 45.1077 52.6917 45.1077C51.0057 45.1077 49.6389 43.7409 49.6389 42.0549C49.6389 40.3689 51.0057 39.0021 52.6917 39.0021C54.3777 39.0021 55.7445 40.3689 55.7445 42.0549ZM50.86 42.0549C50.86 43.0665 51.6801 43.8866 52.6917 43.8866C53.7033 43.8866 54.5234 43.0665 54.5234 42.0549C54.5234 41.0433 53.7033 40.2232 52.6917 40.2232C51.6801 40.2232 50.86 41.0433 50.86 42.0549Z"/>
</mask>
<path d="M55.7445 42.0549C55.7445 43.7409 54.3777 45.1077 52.6917 45.1077C51.0057 45.1077 49.6389 43.7409 49.6389 42.0549C49.6389 40.3689 51.0057 39.0021 52.6917 39.0021C54.3777 39.0021 55.7445 40.3689 55.7445 42.0549ZM50.86 42.0549C50.86 43.0665 51.6801 43.8866 52.6917 43.8866C53.7033 43.8866 54.5234 43.0665 54.5234 42.0549C54.5234 41.0433 53.7033 40.2232 52.6917 40.2232C51.6801 40.2232 50.86 41.0433 50.86 42.0549Z" fill="#F45E0C" stroke="#F45E0C" stroke-width="0.472752" mask="url(#path-7-inside-3_1640_5308)"/>
<mask id="path-8-inside-4_1640_5308" fill="white">
<path d="M49.3624 55.0556C49.3624 56.7416 47.9956 58.1084 46.3096 58.1084C44.6236 58.1084 43.2568 56.7416 43.2568 55.0556C43.2568 53.3696 44.6236 52.0028 46.3096 52.0028C47.9956 52.0028 49.3624 53.3696 49.3624 55.0556ZM44.478 55.0556C44.478 56.0672 45.298 56.8873 46.3096 56.8873C47.3212 56.8873 48.1413 56.0672 48.1413 55.0556C48.1413 54.044 47.3212 53.2239 46.3096 53.2239C45.298 53.2239 44.478 54.044 44.478 55.0556Z"/>
</mask>
<path d="M49.3624 55.0556C49.3624 56.7416 47.9956 58.1084 46.3096 58.1084C44.6236 58.1084 43.2568 56.7416 43.2568 55.0556C43.2568 53.3696 44.6236 52.0028 46.3096 52.0028C47.9956 52.0028 49.3624 53.3696 49.3624 55.0556ZM44.478 55.0556C44.478 56.0672 45.298 56.8873 46.3096 56.8873C47.3212 56.8873 48.1413 56.0672 48.1413 55.0556C48.1413 54.044 47.3212 53.2239 46.3096 53.2239C45.298 53.2239 44.478 54.044 44.478 55.0556Z" fill="#F45E0C" stroke="#F45E0C" stroke-width="0.472752" mask="url(#path-8-inside-4_1640_5308)"/>
<path d="M31.4102 58.1485H4.25761C2.82887 58.1485 1.67065 56.9903 1.67065 55.5615V20.5457C1.67065 19.6726 2.11102 18.8584 2.8417 18.3806L26.1723 3.12288C26.9798 2.59482 28.014 2.55997 28.8552 3.03248L44.9483 12.0724" stroke="#0C68F4" stroke-width="1.72464" stroke-linecap="round"/>
</svg>
